# xmcd
#
# Track frame offsets: 
#        150
#        11430
#        37380
#        53955
#        66105
#        91347
#        110567
#        127427
#        142347
#        163926
#        178176
#        200246
#        231821
#        250944
#        266861
#        289211
#
# Disc length: 4110 seconds
#
# Revision: 0
# Processed by: cddbd v1.5PL3 Copyright (c) Steve Scherf et al.
# Submitted via: ExactAudioCopy v0.95a5
#
DISCID=0d100c10
DTITLE=The Jellyrollers - Blues with a Filling
DYEAR=2001
DGENRE=Blues
TTITLE0=Tune to Big Bill
TTITLE1=Black Rat Swing
TTITLE2=The Kid's Blues
TTITLE3=Custard Pie
TTITLE4=Hands On It
TTITLE5=Great Big Brains
TTITLE6=All By Myself
TTITLE7=Out With the Wrong Woman
TTITLE8=Cafard d'Enfer - Trouble in Mind
TTITLE9=She Took the Katy
TTITLE10=Sad and Lonely
TTITLE11=Big Boss Man
TTITLE12=Stop Breaking Down
TTITLE13=Y'a d'la Joie Ici
TTITLE14=Down in the Alley
TTITLE15=Shake It and Break It
EXTD=
EXTT0=
EXTT1=
EXTT2=
EXTT3=
EXTT4=
EXTT5=
EXTT6=
EXTT7=
EXTT8=
EXTT9=
EXTT10=
EXTT11=
EXTT12=
EXTT13=
EXTT14=
EXTT15=
PLAYORDER=
